<svg width="17" height="16" viewBox="0 0 17 16" fill="none" xmlns="http://www.w3.org/2000/svg">
<path d="M6.38151 0.965494C6.43786 0.999159 6.487 1.04357 6.52614 1.09619C6.56528 1.14881 6.59365 1.20861 6.60962 1.27217C6.6256 1.33573 6.62886 1.4018 6.61923 1.46662C6.60961 1.53144 6.58727 1.59373 6.55351 1.64994L4.00751 5.88333H13.2415L10.6945 1.64994C10.6264 1.53642 10.6062 1.40053 10.6384 1.27218C10.6707 1.14382 10.7527 1.0335 10.8665 0.965494C10.9803 0.897487 11.1165 0.877362 11.2451 0.909545C11.3738 0.941729 11.4844 1.02358 11.5525 1.1371L14.4075 5.88333H16.1245C16.2571 5.88333 16.3843 5.93589 16.4781 6.02945C16.5718 6.123 16.6245 6.24989 16.6245 6.3822V7.37993C16.6245 7.51224 16.5718 7.63913 16.4781 7.73269C16.3843 7.82624 16.2571 7.8788 16.1245 7.8788H1.12451C0.991903 7.8788 0.864727 7.82624 0.770958 7.73269C0.67719 7.63913 0.624512 7.51224 0.624512 7.37993V6.3822C0.624512 6.24989 0.67719 6.123 0.770958 6.02945C0.864727 5.93589 0.991903 5.88333 1.12451 5.88333H2.84151L5.69451 1.1371C5.72825 1.08089 5.77276 1.03185 5.8255 0.992799C5.87824 0.953748 5.93818 0.925446 6.00188 0.909509C6.06558 0.893573 6.13181 0.890315 6.19678 0.899921C6.26174 0.909527 6.32518 0.931809 6.38151 0.965494ZM3.09251 15.288L1.56751 8.87654H15.6815L14.1565 15.288C14.117 15.4512 14.0237 15.5964 13.8914 15.7003C13.7592 15.8042 13.5958 15.8607 13.4275 15.8607H3.82151C3.65305 15.8609 3.48942 15.8045 3.35699 15.7006C3.22456 15.5967 3.13204 15.4514 3.09251 15.288Z" fill="white"/>
</svg>
