<svg width="31" height="30" viewBox="0 0 31 30" fill="none" xmlns="http://www.w3.org/2000/svg">
<path d="M22.7237 19.2988C24.5784 16.9195 25.4091 13.9696 25.0496 11.0393C24.6902 8.10896 23.1669 5.41428 20.7848 3.49437C18.4026 1.57445 15.3371 0.570893 12.2017 0.684468C9.06621 0.798043 6.09198 2.02038 3.87402 4.10692C1.65606 6.19347 0.35794 8.99034 0.239369 11.938C0.120798 14.8857 1.19052 17.7667 3.23452 20.0048C5.27852 22.2428 8.14605 23.6728 11.2634 24.0087C14.3808 24.3445 17.5182 23.5615 20.0478 21.8162H20.0458C20.102 21.8882 20.1646 21.9572 20.2336 22.0233L27.6081 28.9559C27.9673 29.2938 28.4545 29.4837 28.9627 29.4839C29.4708 29.4841 29.9582 29.2945 30.3176 28.9568C30.677 28.6192 30.879 28.1611 30.8792 27.6835C30.8794 27.2058 30.6777 26.7476 30.3185 26.4098L22.944 19.4771C22.8755 19.4119 22.8019 19.3535 22.7237 19.2988ZM23.2179 12.377C23.2179 13.6775 22.9454 14.9654 22.4159 16.167C21.8865 17.3686 21.1105 18.4603 20.1322 19.38C19.1539 20.2997 17.9926 21.0292 16.7144 21.5269C15.4362 22.0246 14.0663 22.2808 12.6828 22.2808C11.2993 22.2808 9.92934 22.0246 8.65116 21.5269C7.37298 21.0292 6.2116 20.2997 5.23332 19.38C4.25505 18.4603 3.47904 17.3686 2.9496 16.167C2.42016 14.9654 2.14766 13.6775 2.14766 12.377C2.14766 9.7503 3.25761 7.23122 5.23332 5.3739C7.20904 3.51657 9.88868 2.47314 12.6828 2.47314C15.4769 2.47314 18.1565 3.51657 20.1322 5.3739C22.1079 7.23122 23.2179 9.7503 23.2179 12.377Z" fill="white"/>
</svg>
