<svg width="30" height="30" viewBox="0 0 30 30" fill="none" xmlns="http://www.w3.org/2000/svg">
<g clip-path="url(#clip0_594_660)">
<path d="M20.2628 11.4448C20.2628 12.8907 19.7058 14.2773 18.7144 15.2997C17.723 16.3221 16.3784 16.8964 14.9764 16.8964C13.5743 16.8964 12.2297 16.3221 11.2383 15.2997C10.2469 14.2773 9.68994 12.8907 9.68994 11.4448C9.68994 9.99893 10.2469 8.61229 11.2383 7.58991C12.2297 6.56753 13.5743 5.99316 14.9764 5.99316C16.3784 5.99316 17.723 6.56753 18.7144 7.58991C19.7058 8.61229 20.2628 9.99893 20.2628 11.4448Z" fill="white"/>
<path fill-rule="evenodd" clip-rule="evenodd" d="M0.87915 15.0797C0.87915 11.224 2.36438 7.52632 5.00811 4.79998C7.65183 2.07364 11.2375 0.541992 14.9763 0.541992C18.7151 0.541992 22.3007 2.07364 24.9445 4.79998C27.5882 7.52632 29.0734 11.224 29.0734 15.0797C29.0734 18.9353 27.5882 22.633 24.9445 25.3594C22.3007 28.0857 18.7151 29.6173 14.9763 29.6173C11.2375 29.6173 7.65183 28.0857 5.00811 25.3594C2.36438 22.633 0.87915 18.9353 0.87915 15.0797ZM14.9763 2.3592C12.6534 2.35933 10.3777 3.03586 8.41126 4.31093C6.44477 5.58601 4.86738 7.40779 3.86063 9.5666C2.85389 11.7254 2.45871 14.1335 2.72059 16.5137C2.98246 18.8939 3.89074 21.1495 5.34089 23.0209C6.59202 20.942 9.34624 18.7141 14.9763 18.7141C20.6063 18.7141 23.3588 20.9402 24.6117 23.0209C26.0618 21.1495 26.9701 18.8939 27.232 16.5137C27.4939 14.1335 27.0987 11.7254 26.0919 9.5666C25.0852 7.40779 23.5078 5.58601 21.5413 4.31093C19.5748 3.03586 17.2992 2.35933 14.9763 2.3592Z" fill="white"/>
</g>
<defs>
<clipPath id="clip0_594_660">
<rect width="28.1943" height="29.0753" fill="white" transform="translate(0.87915 0.541992)"/>
</clipPath>
</defs>
</svg>
